<svg width="35" height="35" viewBox="0 0 35 35" fill="none" xmlns="http://www.w3.org/2000/svg">
<path d="M6.63811 29.1388C3.19326 26.1949 1 21.8248 1 16.983C1 8.16076 8.16731 1 17 1C25.8327 1 33 8.16076 33 16.983C33 21.838 30.7943 26.2222 27.3907 29.2063L27.2693 29.3128C27.1573 29.398 27.039 29.4852 26.9137 29.5773L26.8893 29.5952C26.7877 29.6699 26.6815 29.7479 26.5758 29.8273L28.282 28.1165C31.2298 25.161 32.8872 21.1584 32.892 16.9841V16.983C32.892 8.24429 25.7454 1.10588 17 1.10588C8.25464 1.10588 1.108 8.24429 1.108 16.983C1.108 21.3402 2.89103 25.2557 5.74873 28.1473L7.08898 29.5034C6.99684 29.4332 6.90475 29.362 6.81121 29.2894C6.74074 29.2132 6.67422 29.1638 6.63811 29.1388ZM7.58902 29.8713C7.54552 29.8407 7.50256 29.81 7.46 29.7793V29.6573L7.8907 29.9602C10.4629 31.7693 13.5859 32.8601 17 32.8601L17.0016 32.8601C20.2742 32.8549 23.4659 31.8425 26.1431 29.9603L26.574 29.6574V29.8287C26.5348 29.8581 26.4957 29.8877 26.457 29.9173C26.3471 29.9885 26.2532 30.0613 26.1923 30.1085L26.1798 30.1182C26.098 30.1816 26.0661 30.2046 26.0395 30.2206L26.0161 30.2347L25.9935 30.25C23.3484 32.0404 20.228 32.9982 17.034 33C13.8555 32.9982 10.7498 32.0497 8.11302 30.276C8.10373 30.2681 8.09297 30.259 8.08092 30.2487C7.9772 30.1604 7.77738 29.9903 7.58902 29.8713ZM7.47372 29.0182L7.46 29.128V27.5354C7.75571 26.5843 8.19726 25.6848 8.76894 24.8691C9.36051 24.061 10.0748 23.319 10.8777 22.7014L10.8777 22.7014L10.8827 22.6975C11.4988 22.2174 12.1711 21.814 12.8847 21.4963L14.5916 20.7365L13.0126 19.7376C12.6996 19.5396 12.4177 19.3144 12.1651 19.0618L11.458 19.7689L12.1651 19.0618C11.68 18.5766 11.2797 18.1095 11.0062 17.6172L10.9957 17.5984L10.9845 17.5801C10.664 17.0576 10.426 16.4971 10.2435 15.8583L10.2436 15.8583L10.2397 15.8451C10.0653 15.265 9.976 14.649 9.976 13.9931H9.97605L9.97595 13.9828C9.96625 13.0471 10.148 12.1194 10.51 11.2566C10.8595 10.4242 11.3651 9.66649 11.9995 9.02421L11.9995 9.02423L12.005 9.01859C12.6341 8.37155 13.3883 7.85933 14.2217 7.51311L14.2249 7.51173C15.089 7.14915 16.0181 6.96736 16.9551 6.97757L16.9663 6.97769L16.9775 6.97756C17.9135 6.96677 18.8417 7.14758 19.7052 7.50883C20.537 7.86287 21.2957 8.36859 21.9425 9.00015C22.5853 9.63834 23.0997 10.394 23.4575 11.2262C23.8185 12.088 23.9997 13.0144 23.9901 13.9488L23.9899 13.9618L23.9901 13.9748C24.0098 15.2333 23.672 16.4715 23.0159 17.5455C22.684 18.0832 22.2891 18.5793 21.8394 19.0232L21.8394 19.0232L21.8313 19.0314C21.5779 19.2874 21.2994 19.5173 21 19.7176L19.4831 20.7323L21.1547 21.4647C21.868 21.7772 22.5425 22.1715 23.1647 22.6398C23.9741 23.2493 24.6797 23.9854 25.2544 24.8198L25.2562 24.8223C25.8178 25.6326 26.2571 26.5209 26.5601 27.4587C26.5634 27.4768 26.5671 27.4942 26.5709 27.5109C26.5719 27.5153 26.573 27.5196 26.574 27.5239V29.1074L26.5569 28.9936C26.4444 28.2452 26.256 27.5279 25.99 26.8439L25.9852 26.8315L25.98 26.8192C25.4895 25.651 24.8058 24.6241 23.9291 23.7474L23.9221 23.7404L23.9149 23.7335C22.0564 21.9475 19.5738 20.9583 16.9964 20.9767C16.1296 20.9768 15.2666 21.0904 14.4293 21.3147L14.4249 21.3159C13.6052 21.5394 12.8434 21.8423 12.113 22.2652L12.1027 22.2711L12.0925 22.2773C11.4223 22.6869 10.7515 23.2048 10.1843 23.77C9.56592 24.3521 9.06895 25.0059 8.65505 25.7206C8.22843 26.4559 7.89804 27.243 7.672 28.0625L7.66879 28.0741L7.66586 28.0858L7.65797 28.1174C7.59428 28.3718 7.51485 28.6892 7.47372 29.0182ZM7.46 27.4444C7.46 27.4378 7.46057 27.4426 7.46 27.4561V27.4444ZM21.6851 9.27827L21.6836 9.27679C21.0796 8.67532 20.3646 8.20177 19.5864 7.85158C18.7605 7.47993 17.9037 7.3215 17 7.3215C16.1335 7.3215 15.2421 7.47876 14.4136 7.85158C13.637 8.20109 12.9207 8.67248 12.3149 9.27827C11.7109 9.88222 11.2368 10.5956 10.8861 11.3749C10.5141 12.2016 10.3566 13.0911 10.356 13.9541C10.3478 14.8363 10.5246 15.7104 10.8749 16.52C11.1951 17.3181 11.6746 18.0393 12.283 18.6442L12.2848 18.646C12.8927 19.2472 13.6063 19.731 14.3897 20.0733L14.4001 20.0778L14.4106 20.0821C16.0589 20.758 17.9071 20.758 19.5554 20.0821L19.5659 20.0778L19.5763 20.0733C20.3597 19.731 21.0733 19.2472 21.6812 18.646L21.6812 18.6461L21.6884 18.6388C22.2891 18.0325 22.7729 17.3208 23.1158 16.5393C23.4863 15.7163 23.644 14.8607 23.644 13.9591C23.644 13.0946 23.4867 12.2032 23.1139 11.3749L23.1134 11.3738C22.7634 10.5983 22.2897 9.88284 21.6851 9.27827Z" fill="#3B3B3B" stroke="#3B3B3B" stroke-width="2"/>
</svg>
