<svg width="40" height="40" viewBox="0 0 40 40" fill="none" xmlns="http://www.w3.org/2000/svg">
<path d="M21.5154 34.4759L20.9637 25.8925C20.9637 25.3484 21.1704 25.0909 21.4912 24.77L23.9221 22.7017C24.7104 22.0317 24.6004 21.3709 24.5829 21.0825L24.1662 14.1667C24.1387 13.7075 23.7937 13.3334 23.3329 13.3334C22.8721 13.3334 22.4996 13.7067 22.4996 14.1667V20C22.4996 20.2211 22.4118 20.433 22.2555 20.5893C22.0992 20.7456 21.8872 20.8334 21.6662 20.8334C21.4452 20.8334 21.2332 20.7456 21.077 20.5893C20.9207 20.433 20.8329 20.2211 20.8329 20V14.1667C20.8329 13.9457 20.7451 13.7337 20.5888 13.5775C20.4325 13.4212 20.2206 13.3334 19.9996 13.3334C19.7785 13.3334 19.5666 13.4212 19.4103 13.5775C19.254 13.7337 19.1662 13.9457 19.1662 14.1667V20C19.1662 20.2211 19.0784 20.433 18.9221 20.5893C18.7659 20.7456 18.5539 20.8334 18.3329 20.8334C18.1119 20.8334 17.8999 20.7456 17.7436 20.5893C17.5873 20.433 17.4996 20.2211 17.4996 20V14.1667C17.4996 13.7067 17.1271 13.3334 16.6662 13.3334C16.2054 13.3334 15.8612 13.7075 15.8329 14.1667L15.4162 21.0834C15.3987 21.3809 15.3196 22.0542 16.0771 22.7025L18.4946 24.7709C18.7587 25.0342 18.9529 25.4942 18.9529 25.8934L18.4729 34.475" stroke="#3B3B3B" stroke-linecap="round" stroke-linejoin="round"/>
<path d="M19.9997 37.9167C29.8948 37.9167 37.9163 29.8951 37.9163 20C37.9163 10.1049 29.8948 2.08337 19.9997 2.08337C10.1046 2.08337 2.08301 10.1049 2.08301 20C2.08301 29.8951 10.1046 37.9167 19.9997 37.9167Z" stroke="#3B3B3B" stroke-width="2" stroke-linecap="round" stroke-linejoin="round"/>
<path d="M20.0003 34.5833C28.0545 34.5833 34.5837 28.0541 34.5837 20C34.5837 11.9458 28.0545 5.41663 20.0003 5.41663C11.9462 5.41663 5.41699 11.9458 5.41699 20C5.41699 28.0541 11.9462 34.5833 20.0003 34.5833Z" stroke="#3B3B3B" stroke-width="2" stroke-linecap="round" stroke-linejoin="round"/>
<path d="M9.6878 30.3125C9.37346 30.0089 8.95246 29.841 8.51547 29.8448C8.07847 29.8485 7.66045 30.0238 7.35144 30.3328C7.04242 30.6419 6.86714 31.0599 6.86334 31.4969C6.85955 31.9339 7.02754 32.3549 7.33113 32.6692M20.0003 2.08337C19.5583 2.08337 19.1344 2.25897 18.8218 2.57153C18.5092 2.88409 18.3336 3.30801 18.3336 3.75004C18.3336 4.19207 18.5092 4.61599 18.8218 4.92855C19.1344 5.24111 19.5583 5.41671 20.0003 5.41671" stroke="#3B3B3B" stroke-linecap="round" stroke-linejoin="round"/>
</svg>
