<svg width="35" height="35" viewBox="0 0 35 35" fill="none" xmlns="http://www.w3.org/2000/svg">
<rect x="1" y="1" width="33" height="33" rx="16.5" stroke="#3B3B3B" stroke-width="2"/>
<g clip-path="url(#clip0_1198_5731)">
<path d="M14.0252 17.6071C14.0251 15.0116 15.0525 12.5216 16.8828 10.6812C18.7131 8.84087 21.1975 7.79987 23.793 7.78572C22.037 6.67968 20.0165 6.0647 17.942 6.00483C15.8675 5.94496 13.8149 6.44238 11.998 7.4453C10.1811 8.44821 8.66626 9.91992 7.61134 11.7072C6.55643 13.4944 6 15.5318 6 17.6071C6 19.6825 6.55643 21.7199 7.61134 23.5071C8.66626 25.2944 10.1811 26.7661 11.998 27.769C13.8149 28.7719 15.8675 29.2693 17.942 29.2095C20.0165 29.1496 22.037 28.5346 23.793 27.4286C21.1975 27.4144 18.7131 26.3734 16.8828 24.5331C15.0525 22.6927 14.0251 20.2027 14.0252 17.6071Z" stroke="#3B3B3B" stroke-width="2" stroke-linecap="round" stroke-linejoin="round"/>
<path d="M23.5971 12.3215L25.2221 15.5537H28.4542L26.0257 18.0537L26.7935 21.6251L23.5971 19.8394L20.5435 21.6251L21.1864 18.0537L18.7578 15.5537H21.99L23.5971 12.3215Z" stroke="#3B3B3B" stroke-width="1.5" stroke-linecap="round" stroke-linejoin="round"/>
</g>
<defs>
<clipPath id="clip0_1198_5731">
<rect width="25" height="25" fill="white" transform="translate(5 5)"/>
</clipPath>
</defs>
</svg>
