<svg width="20" height="20" viewBox="0 0 20 20" fill="none" xmlns="http://www.w3.org/2000/svg">
<path fill-rule="evenodd" clip-rule="evenodd" d="M11.6 5.97501C11.7756 5.79923 11.8742 5.56095 11.8742 5.31251C11.8742 5.06407 11.7756 4.82579 11.6 4.65001L8.475 1.52501C8.38917 1.4329 8.28567 1.35902 8.17067 1.30778C8.05567 1.25654 7.93153 1.22899 7.80565 1.22677C7.67977 1.22455 7.55474 1.2477 7.438 1.29486C7.32127 1.34201 7.21523 1.41219 7.1262 1.50121C7.03718 1.59023 6.967 1.69628 6.91985 1.81301C6.8727 1.92975 6.84954 2.05478 6.85176 2.18066C6.85398 2.30654 6.88153 2.43068 6.93277 2.54568C6.98401 2.66068 7.05789 2.76418 7.15 2.85001L8.675 4.37501H2.1875C1.93886 4.37501 1.7004 4.47378 1.52459 4.6496C1.34877 4.82541 1.25 5.06387 1.25 5.31251C1.25 5.56115 1.34877 5.79961 1.52459 5.97542C1.7004 6.15124 1.93886 6.25001 2.1875 6.25001H8.675L7.15 7.77501C7.05789 7.86084 6.98401 7.96434 6.93277 8.07934C6.88153 8.19434 6.85398 8.31848 6.85176 8.44436C6.84954 8.57023 6.8727 8.69527 6.91985 8.81201C6.967 8.92874 7.03718 9.03478 7.1262 9.12381C7.21523 9.21283 7.32127 9.28301 7.438 9.33016C7.55474 9.37731 7.67977 9.40047 7.80565 9.39825C7.93153 9.39603 8.05567 9.36848 8.17067 9.31724C8.28567 9.266 8.38917 9.19212 8.475 9.10001L11.6 5.97501ZM11.525 10.9L8.4 14.025C8.22444 14.2008 8.12582 14.4391 8.12582 14.6875C8.12582 14.9359 8.22444 15.1742 8.4 15.35L11.525 18.475C11.6108 18.5671 11.7143 18.641 11.8293 18.6922C11.9443 18.7435 12.0685 18.771 12.1943 18.7733C12.3202 18.7755 12.4453 18.7523 12.562 18.7052C12.6787 18.658 12.7848 18.5878 12.8738 18.4988C12.9628 18.4098 13.033 18.3037 13.0802 18.187C13.1273 18.0703 13.1505 17.9452 13.1482 17.8194C13.146 17.6935 13.1185 17.5693 13.0672 17.4543C13.016 17.3393 12.9421 17.2358 12.85 17.15L11.325 15.625H17.8125C18.0611 15.625 18.2996 15.5262 18.4754 15.3504C18.6512 15.1746 18.75 14.9362 18.75 14.6875C18.75 14.4389 18.6512 14.2004 18.4754 14.0246C18.2996 13.8488 18.0611 13.75 17.8125 13.75H11.325L12.85 12.225C12.9421 12.1392 13.016 12.0357 13.0672 11.9207C13.1185 11.8057 13.146 11.6815 13.1482 11.5557C13.1505 11.4298 13.1273 11.3047 13.0802 11.188C13.033 11.0713 12.9628 10.9652 12.8738 10.8762C12.7848 10.7872 12.6787 10.717 12.562 10.6699C12.4453 10.6227 12.3202 10.5995 12.1943 10.6018C12.0685 10.604 11.9443 10.6315 11.8293 10.6828C11.7143 10.734 11.6108 10.8079 11.525 10.9ZM17.5 5.31251C17.5 5.89267 17.2695 6.44907 16.8593 6.85931C16.4491 7.26954 15.8927 7.50001 15.3125 7.50001C14.7323 7.50001 14.1759 7.26954 13.7657 6.85931C13.3555 6.44907 13.125 5.89267 13.125 5.31251C13.125 4.73235 13.3555 4.17595 13.7657 3.76571C14.1759 3.35548 14.7323 3.12501 15.3125 3.12501C15.8927 3.12501 16.4491 3.35548 16.8593 3.76571C17.2695 4.17595 17.5 4.73235 17.5 5.31251ZM4.6875 16.875C5.26766 16.875 5.82406 16.6445 6.2343 16.2343C6.64453 15.8241 6.875 15.2677 6.875 14.6875C6.875 14.1073 6.64453 13.5509 6.2343 13.1407C5.82406 12.7305 5.26766 12.5 4.6875 12.5C4.10734 12.5 3.55094 12.7305 3.1407 13.1407C2.73047 13.5509 2.5 14.1073 2.5 14.6875C2.5 15.2677 2.73047 15.8241 3.1407 16.2343C3.55094 16.6445 4.10734 16.875 4.6875 16.875Z" fill="#3B3B3B"/>
</svg>
