<svg width="20" height="21" viewBox="0 0 20 21" fill="none" xmlns="http://www.w3.org/2000/svg">
<path d="M7.44261 10.5C7.44258 8.42357 8.26449 6.43154 9.72874 4.95927C11.193 3.48699 13.1805 2.65419 15.2569 2.64287C13.852 1.75804 12.2356 1.26606 10.5761 1.21816C8.91647 1.17026 7.2744 1.5682 5.82085 2.37053C4.36731 3.17286 3.15547 4.35023 2.31154 5.78003C1.46761 7.20982 1.02246 8.83973 1.02246 10.5C1.02246 12.1603 1.46761 13.7902 2.31154 15.22C3.15547 16.6498 4.36731 17.8272 5.82085 18.6295C7.2744 19.4318 8.91647 19.8298 10.5761 19.7819C12.2356 19.734 13.852 19.242 15.2569 18.3572C13.1805 18.3458 11.193 17.513 9.72874 16.0408C8.26449 14.5685 7.44258 12.5764 7.44261 10.5Z" stroke="#3B3B3B" stroke-width="1.3" stroke-linecap="round" stroke-linejoin="round"/>
<path d="M15.0999 6.27142L16.3999 8.85714H18.9857L17.0428 10.8571L17.6571 13.7143L15.0999 12.2857L12.6571 13.7143L13.1714 10.8571L11.2285 8.85714H13.8142L15.0999 6.27142Z" stroke="#3B3B3B" stroke-width="1.3" stroke-linecap="round" stroke-linejoin="round"/>
</svg>
