<svg width="35" height="35" viewBox="0 0 35 35" fill="none" xmlns="http://www.w3.org/2000/svg">
<rect x="1" y="1" width="33" height="33" rx="16.5" stroke="#3B3B3B" stroke-width="2"/>
<path d="M6.66699 17.9167C6.66699 23.6698 11.3305 28.3333 17.0837 28.3333C22.8368 28.3333 27.5003 23.6698 27.5003 17.9167C27.5003 12.1635 22.8368 7.5 17.0837 7.5C11.3305 7.5 6.66699 12.1635 6.66699 17.9167Z" stroke="#3B3B3B" stroke-width="2" stroke-linecap="round" stroke-linejoin="round"/>
<path d="M18.1253 7.552C18.1253 7.552 21.2503 11.6666 21.2503 17.9166C21.2503 24.1666 18.1253 28.2812 18.1253 28.2812M16.042 28.2812C16.042 28.2812 12.917 24.1666 12.917 17.9166C12.917 11.6666 16.042 7.552 16.042 7.552M7.32324 21.5624H26.8441M7.32324 14.2708H26.8441" stroke="#3B3B3B" stroke-width="2" stroke-linecap="round" stroke-linejoin="round"/>
</svg>
