<svg width="16" height="22" viewBox="0 0 16 22" fill="none" xmlns="http://www.w3.org/2000/svg">
<path d="M8 13.7143C7.04762 13.7143 6.2381 13.381 5.57143 12.7143C4.90476 12.0476 4.57143 11.2381 4.57143 10.2857V3.42857C4.57143 2.47619 4.90476 1.66667 5.57143 1C6.2381 0.333333 7.04762 0 8 0C8.95238 0 9.7619 0.333333 10.4286 1C11.0952 1.66667 11.4286 2.47619 11.4286 3.42857V10.2857C11.4286 11.2381 11.0952 12.0476 10.4286 12.7143C9.7619 13.381 8.95238 13.7143 8 13.7143ZM6.85714 21.7143V18.2C4.87619 17.9333 3.2381 17.0476 1.94286 15.5429C0.647619 14.0381 0 12.2857 0 10.2857H2.28571C2.28571 11.8667 2.84305 13.2145 3.95771 14.3291C5.07238 15.4438 6.41981 16.0008 8 16C9.58019 15.9992 10.928 15.4419 12.0434 14.328C13.1589 13.2141 13.7158 11.8667 13.7143 10.2857H16C16 12.2857 15.3524 14.0381 14.0571 15.5429C12.7619 17.0476 11.1238 17.9333 9.14286 18.2V21.7143H6.85714ZM8 11.4286C8.32381 11.4286 8.59543 11.3189 8.81486 11.0994C9.03429 10.88 9.14362 10.6088 9.14286 10.2857V3.42857C9.14286 3.10476 9.03314 2.83352 8.81371 2.61486C8.59429 2.39619 8.32305 2.28648 8 2.28571C7.67695 2.28495 7.40571 2.39467 7.18629 2.61486C6.96686 2.83505 6.85714 3.10629 6.85714 3.42857V10.2857C6.85714 10.6095 6.96686 10.8811 7.18629 11.1006C7.40571 11.32 7.67695 11.4293 8 11.4286Z" fill="#3B3B3B"/>
</svg>
