<svg width="30" height="34" viewBox="0 0 30 34" fill="none" xmlns="http://www.w3.org/2000/svg">
<path d="M5 5.33337H25C25.442 5.33337 25.866 5.50897 26.1785 5.82153C26.4911 6.13409 26.6667 6.55801 26.6667 7.00004C26.6667 7.44207 26.4911 7.86599 26.1785 8.17855C25.866 8.49111 25.442 8.66671 25 8.66671H5C4.55797 8.66671 4.13405 8.49111 3.82149 8.17855C3.50893 7.86599 3.33333 7.44207 3.33333 7.00004C3.33333 6.55801 3.50893 6.13409 3.82149 5.82153C4.13405 5.50897 4.55797 5.33337 5 5.33337ZM30 0.333374V3.66671H0V0.333374H30ZM20 10.3334H23.3333V33.6667H20V10.3334ZM6.66667 10.3334H10V33.6667H6.66667V10.3334ZM13.3333 10.3334H16.6667V33.6667H13.3333V10.3334Z" fill="#3B3B3B"/>
</svg>
