<svg width="26" height="36" viewBox="0 0 26 36" fill="none" xmlns="http://www.w3.org/2000/svg">
<path d="M19.6663 4.66675H6.33301C3.97634 4.66675 2.79801 4.66675 2.06634 5.40008C1.33301 6.13008 1.33301 7.30841 1.33301 9.66675V26.3334C1.33301 28.6901 1.33301 29.8684 2.06634 30.6001C2.79634 31.3334 3.97467 31.3334 6.33301 31.3334H19.6663C22.023 31.3334 23.2013 31.3334 23.933 30.6001C24.6663 29.8684 24.6663 28.6901 24.6663 26.3334V9.66675C24.6663 7.31008 24.6663 6.13175 23.933 5.40008C23.203 4.66675 22.0247 4.66675 19.6663 4.66675Z" stroke="#3B3B3B" stroke-width="2.5" stroke-linecap="round" stroke-linejoin="round"/>
<path d="M16.3333 4.66671V1.33337M23 4.66671V1.33337M9.66667 4.66671V1.33337M3 4.66671V1.33337M16.3333 34.6667V31.3334M23 34.6667V31.3334M9.66667 34.6667V31.3334M3 34.6667V31.3334M8.645 16.8667C6.74 13.45 9.46167 11.9517 11.5517 10.495C12.345 9.94337 12.74 9.66671 12.9983 9.66671C13.255 9.66671 13.6517 9.94337 14.4433 10.495C16.535 11.9517 19.26 13.45 17.3567 16.8684C17.0233 17.4684 16.8567 17.7684 16.8 17.9817C16.745 18.195 16.745 18.445 16.745 18.945L16.7417 24.63C16.7417 25.4334 16.7417 25.835 16.4983 26.0834C16.2533 26.3334 15.8617 26.3334 15.075 26.3334H10.925C10.1383 26.3334 9.745 26.3334 9.50167 26.0834C9.25833 25.8334 9.25667 25.4334 9.25667 24.63V18.9467C9.25667 18.4467 9.25667 18.1967 9.20167 17.98C9.14667 17.7667 8.97833 17.4667 8.645 16.8667Z" stroke="#3B3B3B" stroke-width="2.5" stroke-linecap="round" stroke-linejoin="round"/>
</svg>
