<svg width="23" height="23" viewBox="0 0 23 23" fill="none" xmlns="http://www.w3.org/2000/svg">
<path fill-rule="evenodd" clip-rule="evenodd" d="M13.9809 15.3076C12.2958 16.654 10.1592 17.304 8.00984 17.1243C5.86048 16.9445 3.86152 15.9486 2.42354 14.341C0.985552 12.7334 0.217698 10.6362 0.277681 8.48019C0.337664 6.32415 1.22093 4.27292 2.74607 2.74778C4.27121 1.22264 6.32244 0.339373 8.47848 0.27939C10.6345 0.219407 12.7317 0.987261 14.3393 2.42525C15.9468 3.86323 16.9428 5.86219 17.1226 8.01155C17.3023 10.1609 16.6523 12.2975 15.3059 13.9826L21.7509 20.4263C21.843 20.5122 21.9169 20.6157 21.9681 20.7307C22.0193 20.8457 22.0469 20.9698 22.0491 21.0957C22.0513 21.2216 22.0282 21.3466 21.981 21.4633C21.9339 21.5801 21.8637 21.6861 21.7747 21.7751C21.6856 21.8642 21.5796 21.9343 21.4629 21.9815C21.3461 22.0286 21.2211 22.0518 21.0952 22.0496C20.9693 22.0474 20.8452 22.0198 20.7302 21.9686C20.6152 21.9173 20.5117 21.8434 20.4259 21.7513L13.9809 15.3076ZM4.07462 13.3551C3.15718 12.4375 2.53232 11.2686 2.27902 9.99605C2.02571 8.72348 2.15534 7.40438 2.65151 6.20546C3.14769 5.00654 3.98813 3.98161 5.06664 3.26021C6.14515 2.53881 7.4133 2.15331 8.71084 2.15244C10.0084 2.15156 11.277 2.53535 12.3565 3.2553C13.436 3.97525 14.2778 4.99905 14.7756 6.1973C15.2734 7.39555 15.4048 8.71447 15.1532 9.98738C14.9016 11.2603 14.2783 12.4301 13.3621 13.3488L13.3559 13.3551L13.3496 13.3601C12.1185 14.5884 10.4502 15.2777 8.71109 15.2768C6.97202 15.2759 5.30443 14.5847 4.07462 13.3551Z" fill="#3B3B3B"/>
</svg>
