<svg width="24" height="24" viewBox="0 0 24 24" fill="none" xmlns="http://www.w3.org/2000/svg">
<path fill-rule="evenodd" clip-rule="evenodd" d="M5.07934 5.06899C8.87434 1.27899 15.0443 1.31899 18.8623 5.13799C22.6823 8.95799 22.7223 15.131 18.9263 18.926C15.1303 22.721 8.95834 22.682 5.13834 18.862C4.06371 17.792 3.25177 16.4875 2.76629 15.0508C2.28081 13.6141 2.13501 12.0845 2.34034 10.582C2.36726 10.3848 2.47141 10.2064 2.62988 10.086C2.78835 9.96559 2.98815 9.91307 3.18534 9.93999C3.38253 9.96691 3.56095 10.0711 3.68134 10.2295C3.80174 10.388 3.85426 10.5878 3.82734 10.785C3.65302 12.0583 3.77642 13.3547 4.18782 14.5723C4.59923 15.7898 5.28744 16.8954 6.19834 17.802C9.44334 21.046 14.6663 21.065 17.8663 17.866C21.0653 14.666 21.0463 9.44299 17.8023 6.19799C14.5593 2.95599 9.33934 2.93499 6.13934 6.12999L6.88734 6.13299C6.98583 6.13345 7.08327 6.1533 7.17409 6.19142C7.2649 6.22954 7.34733 6.28517 7.41664 6.35514C7.48596 6.42511 7.54082 6.50804 7.57809 6.59921C7.61536 6.69038 7.6343 6.788 7.63384 6.88649C7.63338 6.98498 7.61353 7.08242 7.57541 7.17324C7.53729 7.26406 7.48166 7.34648 7.41169 7.4158C7.34173 7.48511 7.25879 7.53997 7.16762 7.57724C7.07645 7.61451 6.97883 7.63345 6.88034 7.63299L4.33434 7.62099C4.13664 7.61994 3.94735 7.54087 3.80765 7.40098C3.66795 7.26109 3.58913 7.07169 3.58834 6.87399L3.57534 4.32999C3.57481 4.2315 3.59369 4.13387 3.6309 4.04267C3.6681 3.95148 3.72291 3.8685 3.79218 3.79849C3.86145 3.72847 3.94384 3.67279 4.03463 3.63461C4.12542 3.59644 4.22285 3.57652 4.32134 3.57599C4.41983 3.57547 4.51746 3.59434 4.60866 3.63155C4.69985 3.66876 4.78283 3.72356 4.85284 3.79283C4.92286 3.8621 4.97854 3.94449 5.01672 4.03528C5.05489 4.12608 5.07481 4.2235 5.07534 4.32199L5.07934 5.06899ZM11.9993 7.24899C12.1983 7.24899 12.389 7.32801 12.5297 7.46866C12.6703 7.60931 12.7493 7.80008 12.7493 7.99899V11.689L15.0303 13.969C15.102 14.0381 15.1592 14.1209 15.1985 14.2124C15.2379 14.3038 15.2586 14.4022 15.2595 14.5018C15.2604 14.6014 15.2415 14.7002 15.2038 14.7924C15.1662 14.8846 15.1105 14.9683 15.0401 15.0388C14.9698 15.1092 14.886 15.165 14.7939 15.2027C14.7017 15.2405 14.603 15.2595 14.5034 15.2587C14.4038 15.2579 14.3054 15.2372 14.2139 15.198C14.1223 15.1587 14.0396 15.1016 13.9703 15.03L11.2503 12.31V7.99999C11.2503 7.80108 11.3294 7.61031 11.47 7.46966C11.6107 7.32901 11.8014 7.24999 12.0003 7.24999" fill="#3B3B3B"/>
</svg>
