<svg width="36" height="35" viewBox="0 0 36 35" fill="none" xmlns="http://www.w3.org/2000/svg">
<rect x="1.5" y="1" width="33" height="33" rx="16.5" stroke="#3B3B3B" stroke-width="2"/>
<path d="M10.5 9.5H26.5C27.0304 9.5 27.5391 9.71071 27.9142 10.0858C28.2893 10.4609 28.5 10.9696 28.5 11.5V23.5C28.5 24.61 27.61 25.5 26.5 25.5H22.5L18.5 29.5L14.5 25.5H10.5C9.96957 25.5 9.46086 25.2893 9.08579 24.9142C8.71071 24.5391 8.5 24.0304 8.5 23.5V11.5C8.5 10.4 9.4 9.5 10.5 9.5ZM10.5 11.5V23.5H15.33L18.5 26.67L21.67 23.5H26.5V11.5H10.5ZM22.34 15.7L21.33 16.71L19.26 14.68L20.27 13.66C20.47 13.45 20.81 13.44 21.05 13.66L22.34 14.91C22.55 15.12 22.56 15.46 22.34 15.7ZM14.5 19.41L18.67 15.22L20.74 17.3L16.58 21.5H14.5V19.41Z" fill="#3B3B3B"/>
</svg>
