<svg width="34" height="36" viewBox="0 0 34 36" fill="none" xmlns="http://www.w3.org/2000/svg">
<path d="M8.66667 29.6666H25.3333M28.6667 24.6666C29.9617 24.705 30.7333 24.85 31.2667 25.385C32 26.1183 32 27.2983 32 29.66C32 32.02 32 33.2 31.2667 33.9333C30.535 34.6666 29.3567 34.6666 27 34.6666H7C4.64333 34.6666 3.465 34.6666 2.73333 33.9333C2.00167 33.2 2 32.02 2 29.66C2 27.3 2 26.1183 2.73333 25.385C3.26667 24.8516 4.03833 24.705 5.33333 24.6666" stroke="#3B3B3B" stroke-width="2.5" stroke-linecap="round" stroke-linejoin="round"/>
<path d="M20.8588 29.6666C21.4774 29.1369 21.9741 28.4798 22.315 27.7402C22.6559 27.0006 22.8329 26.196 22.8338 25.3816C22.8338 22.225 20.2221 19.6666 17.0005 19.6666C13.7788 19.6666 11.1671 22.225 11.1671 25.3816C11.1681 26.196 11.345 27.0006 11.6859 27.7402C12.0268 28.4798 12.5236 29.1369 13.1421 29.6666M30.3338 14.6666H26.3421C25.8521 14.6666 25.3688 14.5566 24.9305 14.3433L21.5271 12.6966C21.0862 12.4844 20.6031 12.3744 20.1138 12.375H18.3771C16.6971 12.375 15.3338 11.0566 15.3338 9.42996C15.3338 9.36329 15.3788 9.30662 15.4438 9.28829L19.6788 8.11829C20.4385 7.90784 21.2488 7.9807 21.9588 8.32329L25.5971 10.0833M15.3338 10.5L7.6788 12.8516C7.01237 13.0561 6.29838 13.0449 5.63872 12.8195C4.97907 12.5941 4.40746 12.1661 4.00547 11.5966C3.39047 10.7466 3.64047 9.52662 4.53713 9.00996L17.0621 1.78162C17.4538 1.55503 17.8875 1.41053 18.3367 1.35695C18.786 1.30337 19.2415 1.34182 19.6755 1.46996L30.3338 4.63329" stroke="#3B3B3B" stroke-width="2.5" stroke-linecap="round" stroke-linejoin="round"/>
</svg>
